<svg width="24" height="24" viewBox="0 0 24 24" fill="none" xmlns="http://www.w3.org/2000/svg">
<g clip-path="url(#clip0_3943_8905)">
<path d="M12 24C18.6274 24 24 18.6274 24 12C24 5.37258 18.6274 0 12 0C5.37258 0 0 5.37258 0 12C0 18.6274 5.37258 24 12 24Z" fill="#0E5445"/>
<path d="M21.1695 7.68359L20.5834 8.70004L19.9962 9.71649L19.4101 10.7317L16.5854 15.6249L15.5416 17.4331L14.3611 19.4767L13.1806 17.4331L12.591 16.4108L13.0451 15.6249L13.7715 14.3672L14.3611 15.3884L17.0503 10.7317L17.6363 9.71649H11.0859L11.4093 10.2764L11.1477 10.7317L10.23 12.3212L9.3122 10.7317L8.72611 9.71649L8.13883 8.70004L7.55273 7.68359H21.1695Z" fill="white"/>
<path d="M14.6896 10.7317L13.181 13.3436V13.3448L12.0005 15.3884L11.8637 15.6249L11.4096 16.4108L10.8211 17.4331H10.82L9.64064 19.4767L8.46014 17.4331L8.45895 17.432L7.8693 16.4096L7.41635 15.6249L4.59052 10.7317L4.00443 9.71649L3.41833 8.70004L2.83105 7.68359H6.37256L6.95866 8.70004L7.54475 9.71649H6.36543L6.95152 10.7317L9.0498 14.3648V14.366L9.64064 15.3884L10.2303 14.366L10.82 13.3436H10.8211L12.0005 11.3V11.2988L12.3286 10.7317H14.6896Z" fill="white"/>
</g>
<defs>
<clipPath id="clip0_3943_8905">
<rect width="24" height="24" fill="white"/>
</clipPath>
</defs>
</svg>
