<svg width="70" height="71" viewBox="0 0 70 71" fill="none" xmlns="http://www.w3.org/2000/svg">
<path d="M12.4113 65.293L50.0112 47.8595L23.1446 20.9929L5.7113 58.5762C5.46128 59.1762 4.5113 61.5929 7.09462 63.893C9.89462 66.3763 11.8113 65.543 12.4113 65.293Z" fill="url(#paint0_linear_41350_73375)"/>
<path d="M19.3775 29.1091L16.5775 35.1924C15.6775 37.3758 31.6443 53.4925 40.6609 52.1925L50.0108 47.8592C38.9275 52.9759 18.0108 32.0757 19.3775 29.1091Z" fill="url(#paint1_linear_41350_73375)"/>
<path d="M13.7113 41.3755L13.0614 42.7589L10.8613 47.492C10.8447 49.3587 20.4614 58.9586 26.478 58.7588L34.1114 55.2253C25.8447 56.6588 12.7614 43.3921 13.7113 41.3755Z" fill="url(#paint2_linear_41350_73375)"/>
<path d="M5.89453 58.2104C6.69454 59.8105 10.6112 63.7104 13.8612 64.6271L21.9279 60.8937L21.9779 60.8605C17.0112 63.1437 8.6112 54.6772 8.4612 52.7104L5.89453 58.2104Z" fill="url(#paint3_linear_41350_73375)"/>
<path opacity="0.75" d="M12.4113 65.293L50.0112 47.8595L23.1446 20.9929L5.7113 58.5762C5.46128 59.1762 4.5113 61.5929 7.09462 63.893C9.89462 66.3763 11.8113 65.543 12.4113 65.293Z" fill="url(#paint4_radial_41350_73375)"/>
<path opacity="0.75" d="M12.4113 65.293L50.0112 47.8595L23.1446 20.9929L5.7113 58.5762C5.46128 59.1762 4.5113 61.5929 7.09462 63.893C9.89462 66.3763 11.8113 65.543 12.4113 65.293Z" fill="url(#paint5_radial_41350_73375)"/>
<path d="M35.9931 21.1259C35.5431 22.0425 34.6596 22.1759 34.0098 21.9759L35.0764 19.8592C35.0764 19.8592 36.2763 20.1259 36.3098 19.3425L36.3597 20.4425L35.9931 21.1259Z" fill="url(#paint6_linear_41350_73375)"/>
<path d="M38.9776 9.45963C38.9776 9.45963 39.7441 9.10966 40.2274 8.10965C40.7109 7.10964 38.3274 5.22632 38.3274 5.22632L37.2109 7.17631C37.2109 7.17631 39.0942 8.40963 38.5109 8.8263C37.9109 9.24298 38.9776 9.45963 38.9776 9.45963Z" fill="url(#paint7_linear_41350_73375)"/>
<path d="M58.4782 25.4933C58.8282 22.4267 56.7614 21.41 56.0115 21.4933C56.0115 21.4933 55.878 20.4933 57.2115 20.1767C58.0946 19.9767 60.3448 21.9767 59.7615 24.2433L58.4782 25.4933Z" fill="url(#paint8_linear_41350_73375)"/>
<path d="M50.327 47.6267C48.4604 49.4934 40.9269 44.96 33.4769 37.5269C26.0436 30.0934 21.5103 22.5434 23.3769 20.6767C25.2436 18.8101 32.7769 23.3434 40.2269 30.7768C47.6603 38.2269 52.1768 45.76 50.327 47.6267Z" fill="url(#paint9_linear_41350_73375)"/>
<path d="M49.6943 46.3925C48.2777 47.8092 41.511 43.3426 34.5944 36.4094C27.6777 29.4759 23.1944 22.7259 24.6111 21.3093C26.0277 19.8926 32.7943 24.3592 39.7111 31.2927C46.6277 38.2259 51.1109 44.9759 49.6943 46.3925Z" fill="url(#paint10_linear_41350_73375)"/>
<path d="M40.2104 8.11011C40.2104 8.11011 39.3438 9.96009 39.2272 10.1601C38.7937 10.8934 37.5769 11.1434 35.3938 10.8434C33.2104 10.5434 32.5772 10.6601 32.4771 10.6768C32.3771 10.7101 31.0938 9.67677 31.0938 9.67677L31.2104 8.62677C31.2104 8.62677 31.5102 8.22677 32.5104 8.3601C34.2936 8.62677 39.5436 9.51011 40.2104 8.11011Z" fill="url(#paint11_linear_41350_73375)"/>
<path d="M44.5439 39.0591C46.2939 37.0592 47.9273 38.626 48.9603 37.1925L47.1937 35.3926C46.1603 36.8092 44.6606 35.476 42.8105 37.4258L44.5439 39.0591Z" fill="url(#paint12_linear_41350_73375)"/>
<path d="M25.5605 14.7931C27.9772 16.2264 25.8272 18.1931 27.1939 19.3097L29.0772 17.6264C27.7106 16.5097 29.6772 14.5764 27.2606 13.1431L25.5605 14.7931Z" fill="url(#paint13_linear_41350_73375)"/>
<path d="M51.1435 22.209C51.2103 22.1923 51.2435 21.7923 52.2267 21.0923C53.2102 20.3923 55.4269 21.4756 55.7101 21.6423C56.0102 21.809 55.7603 24.559 55.7603 24.559C55.7603 24.559 52.9935 21.609 51.6102 22.2923C50.2268 22.959 51.1435 22.209 51.1435 22.209Z" fill="url(#paint14_linear_41350_73375)"/>
<path d="M51.5099 29.0594C51.5099 29.0594 51.4098 30.1428 50.9099 30.6427C50.0098 31.5262 48.5766 30.1927 46.7598 30.676C46.7598 30.676 47.5931 28.5595 47.6765 28.3928C47.6765 28.3928 48.4097 27.9428 49.1599 28.3761C49.9264 28.7928 50.5931 28.9261 51.0598 28.6761C51.5265 28.4261 51.5099 29.0594 51.5099 29.0594Z" fill="url(#paint15_linear_41350_73375)"/>
<path d="M56.3936 24.2922C56.3936 24.2922 54.6101 25.1088 54.3768 25.2255C54.1434 25.3422 53.6103 21.1922 54.8936 20.7755C56.1935 20.3588 57.077 20.2088 57.2103 20.1922C57.3436 20.1588 54.977 20.4088 56.3936 24.2922Z" fill="#FFBF00"/>
<path d="M50.9104 30.6257C51.644 29.8589 52.6438 28.7257 52.5939 28.409C52.3606 26.3757 50.7106 21.8924 52.2273 21.0757C52.2273 21.0757 50.8104 22.0757 50.3773 22.3757C49.9438 22.6757 49.6271 23.4757 49.6606 24.7923C49.7438 27.0924 51.5772 29.9423 50.9104 30.6257Z" fill="#FFBF00"/>
<path d="M45.8445 14.1755C44.628 22.7255 36.1445 30.8921 36.1445 30.8921L37.2946 32.6421C37.2946 32.6421 46.5279 23.0255 47.7112 14.4422L45.8445 14.1755Z" fill="url(#paint16_linear_41350_73375)"/>
<path d="M30.1945 10.6093C29.9944 10.9759 30.5778 11.5926 31.9778 13.2926C33.3778 14.9926 37.0113 19.4926 35.978 21.1259L37.0945 18.8259C37.0945 18.8259 37.1111 16.9926 36.0112 15.2092C34.2778 12.4092 30.9613 9.3926 31.2113 8.64258L30.1945 10.6093Z" fill="url(#paint17_linear_41350_73375)"/>
<path d="M37.6267 36.6253C38.0042 36.6253 38.3101 36.3193 38.3101 35.9419C38.3101 35.5645 38.0042 35.2585 37.6267 35.2585C37.2493 35.2585 36.9434 35.5645 36.9434 35.9419C36.9434 36.3193 37.2493 36.6253 37.6267 36.6253Z" fill="url(#paint18_linear_41350_73375)"/>
<path d="M47.1443 8.22628C47.5217 8.22628 47.8277 7.92032 47.8277 7.54294C47.8277 7.16555 47.5217 6.85962 47.1443 6.85962C46.7669 6.85962 46.4609 7.16555 46.4609 7.54294C46.4609 7.92032 46.7669 8.22628 47.1443 8.22628Z" fill="url(#paint19_linear_41350_73375)"/>
<path d="M40.7263 18.1428C41.1038 18.1428 41.4097 17.8368 41.4097 17.4594C41.4097 17.0821 41.1038 16.7761 40.7263 16.7761C40.3489 16.7761 40.043 17.0821 40.043 17.4594C40.043 17.8368 40.3489 18.1428 40.7263 18.1428Z" fill="url(#paint20_linear_41350_73375)"/>
<path d="M44.7771 30.6597C45.1545 30.6597 45.4605 30.3538 45.4605 29.9764C45.4605 29.599 45.1545 29.293 44.7771 29.293C44.3997 29.293 44.0938 29.599 44.0938 29.9764C44.0938 30.3538 44.3997 30.6597 44.7771 30.6597Z" fill="url(#paint21_linear_41350_73375)"/>
<path d="M62.3435 28.9934C62.7207 28.9934 63.0266 28.6874 63.0266 28.3101C63.0266 27.9327 62.7207 27.6267 62.3435 27.6267C61.9661 27.6267 61.6602 27.9327 61.6602 28.3101C61.6602 28.6874 61.9661 28.9934 62.3435 28.9934Z" fill="url(#paint22_linear_41350_73375)"/>
<path d="M57.9939 43.4102C58.3713 43.4102 58.6773 43.1042 58.6773 42.7268C58.6773 42.3494 58.3713 42.0435 57.9939 42.0435C57.6165 42.0435 57.3105 42.3494 57.3105 42.7268C57.3105 43.1042 57.6165 43.4102 57.9939 43.4102Z" fill="url(#paint23_linear_41350_73375)"/>
<path d="M55.144 34.6089C55.5214 34.6089 55.8274 34.303 55.8274 33.9256C55.8274 33.5481 55.5214 33.2422 55.144 33.2422C54.7669 33.2422 54.4609 33.5481 54.4609 33.9256C54.4609 34.303 54.7669 34.6089 55.144 34.6089Z" fill="url(#paint24_linear_41350_73375)"/>
<path d="M58.8943 16.0437C59.2717 16.0437 59.5777 15.7377 59.5777 15.3603C59.5777 14.9829 59.2717 14.677 58.8943 14.677C58.5169 14.677 58.2109 14.9829 58.2109 15.3603C58.2109 15.7377 58.5169 16.0437 58.8943 16.0437Z" fill="url(#paint25_linear_41350_73375)"/>
<path d="M51.2263 18.2766C51.6038 18.2766 51.9097 17.9706 51.9097 17.5932C51.9097 17.2158 51.6038 16.9099 51.2263 16.9099C50.8489 16.9099 50.543 17.2158 50.543 17.5932C50.543 17.9706 50.8489 18.2766 51.2263 18.2766Z" fill="url(#paint26_linear_41350_73375)"/>
<path d="M45.3768 45.2763C52.3433 39.5597 64.1432 38.3764 64.1432 38.3764L64.5268 35.7429C64.5268 35.7429 50.56 37.4095 43.1602 43.8262C43.9599 44.3763 44.6934 44.8595 45.3768 45.2763Z" fill="url(#paint27_linear_41350_73375)"/>
<path d="M27.8926 28.8092C28.3592 29.4426 28.8759 30.0759 29.4258 30.7427C30.9092 27.4759 30.5925 24.9092 30.5925 24.9092L28.7759 23.7759C28.9592 25.7925 28.3426 27.7259 27.8926 28.8092Z" fill="url(#paint28_linear_41350_73375)"/>
<defs>
<linearGradient id="paint0_linear_41350_73375" x1="3.50484" y1="26.2434" x2="33.2508" y2="61.4941" gradientUnits="userSpaceOnUse">
<stop offset="0.2544" stop-color="#FBE07A"/>
<stop offset="1" stop-color="#FF40BF"/>
</linearGradient>
<linearGradient id="paint1_linear_41350_73375" x1="19.6703" y1="28.8228" x2="44.3554" y2="53.5079" gradientUnits="userSpaceOnUse">
<stop offset="0.2544" stop-color="#9F00E8"/>
<stop offset="1" stop-color="#7000A3"/>
</linearGradient>
<linearGradient id="paint2_linear_41350_73375" x1="12.8286" y1="42.2613" x2="29.9488" y2="59.3812" gradientUnits="userSpaceOnUse">
<stop offset="0.2544" stop-color="#9F00E8"/>
<stop offset="1" stop-color="#7000A3"/>
</linearGradient>
<linearGradient id="paint3_linear_41350_73375" x1="7.65337" y1="53.4953" x2="18.4879" y2="64.3299" gradientUnits="userSpaceOnUse">
<stop offset="0.2544" stop-color="#9F00E8"/>
<stop offset="1" stop-color="#7000A3"/>
</linearGradient>
<radialGradient id="paint4_radial_41350_73375" cx="0" cy="0" r="1" gradientUnits="userSpaceOnUse" gradientTransform="translate(19.623 38.0385) rotate(119.598) scale(17.0765 5.22795)">
<stop stop-color="white" stop-opacity="0.5"/>
<stop offset="1" stop-color="white" stop-opacity="0"/>
</radialGradient>
<radialGradient id="paint5_radial_41350_73375" cx="0" cy="0" r="1" gradientUnits="userSpaceOnUse" gradientTransform="translate(31.623 53.3464) rotate(151.7) scale(27.0695 8.44267)">
<stop stop-color="#440063" stop-opacity="0.75"/>
<stop offset="1" stop-color="#420061" stop-opacity="0"/>
</radialGradient>
<linearGradient id="paint6_linear_41350_73375" x1="36.1194" y1="20.5033" x2="40.2103" y2="19.1968" gradientUnits="userSpaceOnUse">
<stop stop-color="#BD2719"/>
<stop offset="1" stop-color="#FF4E0D"/>
</linearGradient>
<linearGradient id="paint7_linear_41350_73375" x1="39.924" y1="10.353" x2="38.0924" y2="5.80239" gradientUnits="userSpaceOnUse">
<stop stop-color="#BD2719"/>
<stop offset="1" stop-color="#FF4E0D"/>
</linearGradient>
<linearGradient id="paint8_linear_41350_73375" x1="60.297" y1="24.2515" x2="53.4746" y2="19.8799" gradientUnits="userSpaceOnUse">
<stop stop-color="#FFCB4B"/>
<stop offset="1" stop-color="#E81CA2"/>
</linearGradient>
<linearGradient id="paint9_linear_41350_73375" x1="42.8158" y1="15.336" x2="27.5723" y2="63.3954" gradientUnits="userSpaceOnUse">
<stop offset="0.2544" stop-color="#FBE07A"/>
<stop offset="1" stop-color="#E81CA2"/>
</linearGradient>
<linearGradient id="paint10_linear_41350_73375" x1="47.8212" y1="26.3673" x2="24.4266" y2="42.7753" gradientUnits="userSpaceOnUse">
<stop stop-color="#FBE07A"/>
<stop offset="1" stop-color="white"/>
</linearGradient>
<linearGradient id="paint11_linear_41350_73375" x1="28.9895" y1="9.69167" x2="36.5453" y2="9.57719" gradientUnits="userSpaceOnUse">
<stop stop-color="#BD2719"/>
<stop offset="1" stop-color="#FF4E0D"/>
</linearGradient>
<linearGradient id="paint12_linear_41350_73375" x1="46.7758" y1="35.747" x2="44.9587" y2="39.0072" gradientUnits="userSpaceOnUse">
<stop stop-color="#FF9214"/>
<stop offset="1" stop-color="#FF4E0D"/>
</linearGradient>
<linearGradient id="paint13_linear_41350_73375" x1="25.5498" y1="10.6868" x2="28.2973" y2="18.5477" gradientUnits="userSpaceOnUse">
<stop stop-color="#80DAFE"/>
<stop offset="1" stop-color="#008EE6"/>
</linearGradient>
<linearGradient id="paint14_linear_41350_73375" x1="53.6267" y1="25.9615" x2="52.9976" y2="18.0318" gradientUnits="userSpaceOnUse">
<stop stop-color="#FFCB4B"/>
<stop offset="1" stop-color="#E81CA2"/>
</linearGradient>
<linearGradient id="paint15_linear_41350_73375" x1="46.9666" y1="29.3042" x2="51.348" y2="30.0139" gradientUnits="userSpaceOnUse">
<stop stop-color="#FFCB4B"/>
<stop offset="1" stop-color="#E81CA2"/>
</linearGradient>
<linearGradient id="paint16_linear_41350_73375" x1="43.9568" y1="14.4832" x2="37.457" y2="41.2317" gradientUnits="userSpaceOnUse">
<stop offset="0.2544" stop-color="#E100FF"/>
<stop offset="1" stop-color="#7000A3"/>
</linearGradient>
<linearGradient id="paint17_linear_41350_73375" x1="31.173" y1="10.1006" x2="35.9812" y2="18.1142" gradientUnits="userSpaceOnUse">
<stop stop-color="#FF9214"/>
<stop offset="1" stop-color="#FF4E0D"/>
</linearGradient>
<linearGradient id="paint18_linear_41350_73375" x1="36.3198" y1="32.0957" x2="38.9144" y2="39.7278" gradientUnits="userSpaceOnUse">
<stop stop-color="#FFCB4B"/>
<stop offset="1" stop-color="#E81CA2"/>
</linearGradient>
<linearGradient id="paint19_linear_41350_73375" x1="45.0598" y1="4.1253" x2="49.3336" y2="11.1467" gradientUnits="userSpaceOnUse">
<stop stop-color="#FBE07A"/>
<stop offset="1" stop-color="#E81CA2"/>
</linearGradient>
<linearGradient id="paint20_linear_41350_73375" x1="40.6246" y1="17.0813" x2="41.6929" y2="21.1262" gradientUnits="userSpaceOnUse">
<stop stop-color="#80DAFE"/>
<stop offset="1" stop-color="#008EE6"/>
</linearGradient>
<linearGradient id="paint21_linear_41350_73375" x1="44.3166" y1="28.6787" x2="44.9687" y2="30.5445" gradientUnits="userSpaceOnUse">
<stop stop-color="#80DAFE"/>
<stop offset="1" stop-color="#008EE6"/>
</linearGradient>
<linearGradient id="paint22_linear_41350_73375" x1="62.8391" y1="26.7148" x2="61.6179" y2="30.6072" gradientUnits="userSpaceOnUse">
<stop stop-color="#FFCB4B"/>
<stop offset="1" stop-color="#E81CA2"/>
</linearGradient>
<linearGradient id="paint23_linear_41350_73375" x1="57.7927" y1="38.3606" x2="58.1742" y2="46.6795" gradientUnits="userSpaceOnUse">
<stop stop-color="#FFCB4B"/>
<stop offset="1" stop-color="#E81CA2"/>
</linearGradient>
<linearGradient id="paint24_linear_41350_73375" x1="54.6966" y1="32.6341" x2="55.3485" y2="34.4999" gradientUnits="userSpaceOnUse">
<stop offset="0.2544" stop-color="#9F00E8"/>
<stop offset="1" stop-color="#7000A3"/>
</linearGradient>
<linearGradient id="paint25_linear_41350_73375" x1="60.2208" y1="13.0832" x2="57.7023" y2="17.4334" gradientUnits="userSpaceOnUse">
<stop stop-color="#80DAFE"/>
<stop offset="1" stop-color="#008EE6"/>
</linearGradient>
<linearGradient id="paint26_linear_41350_73375" x1="51.0502" y1="16.6236" x2="51.8896" y2="21.2792" gradientUnits="userSpaceOnUse">
<stop stop-color="#FF9214"/>
<stop offset="1" stop-color="#FF4E0D"/>
</linearGradient>
<linearGradient id="paint27_linear_41350_73375" x1="38.4369" y1="40.1643" x2="62.7701" y2="40.6642" gradientUnits="userSpaceOnUse">
<stop stop-color="#80DAFE"/>
<stop offset="1" stop-color="#008EE6"/>
</linearGradient>
<linearGradient id="paint28_linear_41350_73375" x1="24.9936" y1="37.4574" x2="30.827" y2="22.9575" gradientUnits="userSpaceOnUse">
<stop stop-color="#FBE07A"/>
<stop offset="1" stop-color="#E81CA2"/>
</linearGradient>
</defs>
</svg>
