<svg width="70" height="71" viewBox="0 0 70 71" fill="none" xmlns="http://www.w3.org/2000/svg">
<path d="M32.8137 6.22754C20.5105 6.23953 14.1449 6.45964 10.1065 10.4981C6.06804 14.5365 5.84792 20.9021 5.83594 33.2053H20.1666C19.1429 31.9266 18.3781 30.4185 17.961 28.7501C16.3912 22.4707 22.0791 16.7828 28.3585 18.3526C30.0269 18.7697 31.535 19.5345 32.8137 20.5582V6.22754Z" fill="#00E489"/>
<path d="M5.83594 37.5801C5.84792 49.8831 6.06804 56.2485 10.1065 60.2871C14.1449 64.3254 20.5105 64.5456 32.8137 64.5575V41.5863C30.5396 46.1283 25.843 49.2464 20.4181 49.2464C19.21 49.2464 18.2307 48.267 18.2307 47.059C18.2307 45.8509 19.21 44.8715 20.4181 44.8715C24.9003 44.8715 28.6558 41.7604 29.6433 37.5801H5.83594Z" fill="#00E489"/>
<path d="M37.1885 64.5575C49.4915 64.5456 55.8569 64.3254 59.8955 60.2871C63.9338 56.2485 64.154 49.8831 64.1659 37.5801H40.3585C41.3461 41.7604 45.1018 44.8715 49.584 44.8715C50.792 44.8715 51.7714 45.8509 51.7714 47.059C51.7714 48.267 50.792 49.2464 49.584 49.2464C44.1588 49.2464 39.4623 46.1283 37.1885 41.5863V64.5575Z" fill="#00E489"/>
<path d="M64.1659 33.2053C64.154 20.9021 63.9338 14.5365 59.8955 10.4981C55.8569 6.45964 49.4915 6.23953 37.1885 6.22754V20.5582C38.4671 19.5345 39.9753 18.7697 41.6433 18.3526C47.923 16.7828 53.6109 22.4707 52.0409 28.7501C51.6238 30.4185 50.8591 31.9266 49.8354 33.2053H64.1659Z" fill="#00E489"/>
<path d="M27.2975 22.5969C30.5393 23.4073 32.8137 26.3201 32.8137 29.6616V33.2053H29.27C25.9285 33.2053 23.0157 30.9309 22.2053 27.6891C21.4364 24.6137 24.2221 21.828 27.2975 22.5969Z" fill="#00E489"/>
<path d="M37.1885 29.6616V33.2053H40.7319C44.0734 33.2053 46.9862 30.9309 47.7967 27.6891C48.5655 24.6137 45.7799 21.828 42.7046 22.5969C39.4626 23.4073 37.1885 26.3201 37.1885 29.6616Z" fill="#00E489"/>
</svg>
