<svg width="70" height="71" viewBox="0 0 70 71" fill="none" xmlns="http://www.w3.org/2000/svg">
<path d="M22.6058 8.55041C22.6058 7.34237 21.6265 6.36304 20.4184 6.36304C19.2104 6.36304 18.2311 7.34237 18.2311 8.55041V13.1563C14.0333 13.4925 11.2775 14.3174 9.25282 16.342C7.22819 18.3667 6.40323 21.1225 6.0671 25.3203H63.9347C63.5987 21.1225 62.7736 18.3667 60.749 16.342C58.7243 14.3174 55.9685 13.4925 51.7708 13.1563V8.55041C51.7708 7.34237 50.7915 6.36304 49.5834 6.36304C48.3754 6.36304 47.3961 7.34237 47.3961 8.55041V12.9628C45.4557 12.9252 43.2809 12.9252 40.8339 12.9252H29.1679C26.7209 12.9252 24.5461 12.9252 22.6058 12.9628V8.55041Z" fill="white"/>
<path fill-rule="evenodd" clip-rule="evenodd" d="M64.1659 36.2572V42.0902C64.1659 53.0889 64.1659 58.5885 60.749 62.0052C57.3323 65.4222 51.8326 65.4222 40.8339 65.4222H29.1679C18.1691 65.4222 12.6697 65.4222 9.25282 62.0052C5.83594 58.5885 5.83594 53.0889 5.83594 42.0902V36.2572C5.83594 33.8102 5.83594 31.6354 5.87356 29.695H64.1283C64.1659 31.6354 64.1659 33.8102 64.1659 36.2572ZM48.1252 53.7562C50.5412 53.7562 52.4999 51.7974 52.4999 49.3814C52.4999 46.9654 50.5412 45.0067 48.1252 45.0067C45.7092 45.0067 43.7504 46.9654 43.7504 49.3814C43.7504 51.7974 45.7092 53.7562 48.1252 53.7562Z" fill="white"/>
</svg>
