<svg width="70" height="71" viewBox="0 0 70 71" fill="none" xmlns="http://www.w3.org/2000/svg">
<path fill-rule="evenodd" clip-rule="evenodd" d="M10.1071 10.9987C5.83594 15.2698 5.83594 22.144 5.83594 35.8925C5.83594 49.6409 5.83594 56.5154 10.1071 60.7863C14.3782 65.0575 21.2524 65.0575 35.0009 65.0575C48.7493 65.0575 55.6238 65.0575 59.8947 60.7863C64.1659 56.5154 64.1659 49.6409 64.1659 35.8925C64.1659 22.144 64.1659 15.2698 59.8947 10.9987C55.6238 6.72754 48.7493 6.72754 35.0009 6.72754C21.2524 6.72754 14.3782 6.72754 10.1071 10.9987ZM30.7519 22.8186C31.5851 21.9438 31.5513 20.5592 30.6764 19.7261C29.8017 18.8929 28.4171 18.9267 27.584 19.8015L20.8351 26.8878L19.0859 25.0512C18.2528 24.1764 16.8682 24.1426 15.9934 24.9758C15.1186 25.8089 15.0848 27.1935 15.918 28.0683L19.2511 31.568C19.664 32.0016 20.2364 32.2469 20.8351 32.2469C21.4337 32.2469 22.0062 32.0016 22.419 31.568L30.7519 22.8186ZM37.9174 24.9557C36.7094 24.9557 35.7301 25.935 35.7301 27.143C35.7301 28.3511 36.7094 29.3304 37.9174 29.3304H52.4999C53.708 29.3304 54.6873 28.3511 54.6873 27.143C54.6873 25.935 53.708 24.9557 52.4999 24.9557H37.9174ZM30.7519 43.234C31.5851 42.3593 31.5513 40.9748 30.6764 40.1416C29.8017 39.3083 28.4171 39.3422 27.584 40.2171L20.8351 47.3033L19.0859 45.4668C18.2528 44.5919 16.8682 44.558 15.9934 45.3913C15.1186 46.2245 15.0848 47.609 15.918 48.4837L19.2511 51.9835C19.664 52.4171 20.2364 52.6624 20.8351 52.6624C21.4337 52.6624 22.0062 52.4171 22.419 51.9835L30.7519 43.234ZM37.9174 45.3712C36.7094 45.3712 35.7301 46.3505 35.7301 47.5585C35.7301 48.7666 36.7094 49.7459 37.9174 49.7459H52.4999C53.708 49.7459 54.6873 48.7666 54.6873 47.5585C54.6873 46.3505 53.708 45.3712 52.4999 45.3712H37.9174Z" fill="white"/>
</svg>
